# xmcd
#
# Track frame offsets:
#	150
#	11250
#	24150
#	41025
#	60300
#	77775
#	90525
#	102712
#	120412
#	138618
#
# Disc length: 2170 seconds
#
# Revision: 0
# Processed by: cddbd v1.5.2PL0 Copyright (c) Steve Scherf et al.
# Submitted via: EasyCDDAExtractor 2010.6.0.0
#
DISCID=7408780a
DTITLE=Perhosveitsi-Heikki and Lika-Aki - Katuvisioita
DYEAR=2012
DGENRE=rap
TTITLE0=Aakkoset
TTITLE1=Bonnie and Clyde
TTITLE2=Lika (mukana G-Piste-Anja)
TTITLE3=Myllyverrarit
TTITLE4=Vaipat
TTITLE5=Sukkatemput
TTITLE6=Jyri
TTITLE7=Nimi muutettu (mukana Paperi-THC)
TTITLE8=Katuvisioita
TTITLE9=Outro
EXTD=
EXTT0=
EXTT1=
EXTT2=
EXTT3=
EXTT4=
EXTT5=
EXTT6=
EXTT7=
EXTT8=
EXTT9=
PLAYORDER=
